# xmcd
#
# Track frame offsets: 
#        150
#        45662
#        104487
#        129600
#        154622
#
# Disc length: 2580 seconds
#
# Revision: 2
# Processed by: cddbd v1.5.2PL0 Copyright (c) Steve Scherf et al.
# Submitted via: ExactAudioCopy v0.99pb5
#
DISCID=3b0a1205
DTITLE=Hank Mobley - Thinking Of Home
DYEAR=1970
DGENRE=Jazz
TTITLE0=Suite: Thinking Of Home, The Flight, Home At Last
TTITLE1=Justine
TTITLE2=You Gotta Hit It
TTITLE3=Gayle's Groove
TTITLE4=Talk About Gittin' It
EXTD=YEAR: 1970
EXTT0=
EXTT1=
EXTT2=
EXTT3=
EXTT4=
PLAYORDER=
